<svg data-v-423bf9ae="" xmlns="http://www.w3.org/2000/svg" viewBox="0 0 395.87299912201405 60" class="font"><!----><!----><!----><g data-v-423bf9ae="" id="c1289519-3b85-4ffb-bfb4-5cef38d562e7" fill="black" transform="matrix(4.535147549208299,0,0,4.535147549208299,-4.444439404881422,-0.9523800993059659)"><path d="M3.22 10.50L3.22 6.37L7.38 6.37L7.38 10.50L9.62 10.50L9.62 0.42L7.38 0.42L7.38 4.34L3.22 4.34L3.22 0.42L0.98 0.42L0.98 10.50ZM15.53 9.74C15.55 9.98 15.64 10.32 15.85 10.50L17.96 10.50C17.71 10.23 17.54 9.76 17.54 9.02L17.54 6.10C17.54 3.85 16.25 3.01 14.39 3.01C13.03 3.01 11.61 3.53 11.24 5.21L13.02 5.80C13.16 5.26 13.48 4.72 14.29 4.72C15.18 4.72 15.44 5.31 15.44 5.78L15.44 5.95C15.08 6.12 14.63 6.20 13.87 6.29C12.11 6.50 11.02 7.08 11.02 8.65C11.02 10.00 12.12 10.71 13.44 10.71C14.31 10.71 14.92 10.47 15.53 9.74ZM15.44 8.19C15.20 8.68 14.59 9.14 13.93 9.14C13.33 9.14 13.13 8.83 13.12 8.51C13.09 7.94 13.51 7.70 14.15 7.57C14.85 7.43 15.19 7.31 15.44 7.21ZM23.06 10.50L26.01 3.22L23.91 3.22L22.12 7.92L20.37 3.22L18.24 3.22L21.21 10.50ZM29.58 10.50L29.58 4.89L31.14 4.89L31.14 3.22L29.58 3.22L29.58 2.90C29.58 2.28 29.88 2.06 30.34 2.06C30.56 2.06 30.94 2.11 31.14 2.20L31.37 0.49C31.14 0.38 30.37 0.27 29.76 0.27C28.22 0.27 27.52 1.39 27.52 2.93L27.52 3.22L26.43 3.22L26.43 4.89L27.52 4.89L27.52 10.50ZM32.28 7.66C32.28 9.48 33.71 10.71 35.67 10.71C37.63 10.71 39.09 9.48 39.09 7.66C39.09 6.33 38.50 5.43 37.34 4.91C38.22 4.56 38.68 3.89 38.68 2.80C38.68 1.20 37.34 0.21 35.67 0.21C34.01 0.21 32.68 1.20 32.68 2.80C32.68 3.89 33.14 4.56 34.02 4.91C32.86 5.43 32.28 6.33 32.28 7.66ZM34.41 7.35C34.41 6.40 34.96 5.94 35.67 5.94C36.39 5.94 36.96 6.40 36.96 7.35C36.96 8.27 36.39 8.75 35.67 8.75C34.96 8.75 34.41 8.27 34.41 7.35ZM34.75 3.11C34.75 2.48 35.08 2.03 35.67 2.03C36.26 2.03 36.61 2.48 36.61 3.11C36.61 3.74 36.26 4.19 35.67 4.19C35.08 4.19 34.75 3.74 34.75 3.11ZM44.51 8.74C44.28 8.81 44.07 8.82 43.93 8.82C43.27 8.82 43.27 8.37 43.27 7.74L43.27 4.89L44.66 4.89L44.66 3.22L43.27 3.22L43.27 1.12L41.17 1.72L41.17 3.22L40.14 3.22L40.14 4.89L41.17 4.89L41.17 8.37C41.17 9.80 41.78 10.64 43.30 10.64C43.57 10.64 44.35 10.56 44.63 10.40ZM48.09 10.50L48.09 6.54C48.09 5.36 48.69 4.77 49.42 4.77C50.23 4.77 50.54 5.25 50.54 6.09L50.54 10.50L52.64 10.50L52.64 6.03C52.64 4.30 52.01 3.01 49.99 3.01C49.13 3.01 48.58 3.33 48.09 4.13L48.09 0.42L45.99 0.42L45.99 10.50ZM58.30 13.23C58.56 13.33 58.86 13.44 59.37 13.44C60.70 13.44 61.54 12.59 62.16 10.91L65.00 3.22L62.93 3.22L61.26 8.02L59.58 3.22L57.44 3.22L60.27 10.43L60.20 10.63C59.92 11.37 59.56 11.56 59.01 11.56C58.52 11.56 58.39 11.47 58.16 11.37L58.30 13.23ZM65.21 6.86C65.21 9.55 66.88 10.71 68.82 10.71C70.77 10.71 72.44 9.55 72.44 6.86C72.44 4.17 70.77 3.01 68.82 3.01C66.88 3.01 65.21 4.17 65.21 6.86ZM67.31 6.86C67.31 5.50 67.86 4.76 68.82 4.76C69.79 4.76 70.34 5.50 70.34 6.86C70.34 8.22 69.79 8.96 68.82 8.96C67.86 8.96 67.31 8.22 67.31 6.86ZM80.14 10.22L80.14 3.22L78.18 3.22L78.18 4.07C77.76 3.37 77.10 3.01 76.27 3.01C74.54 3.01 73.14 4.24 73.14 6.79C73.14 9.34 74.61 10.57 76.34 10.57C76.93 10.57 77.62 10.42 78.04 9.87L78.04 10.25C78.04 11.19 77.60 11.82 76.55 11.82C75.82 11.82 75.42 11.61 75.31 11.14L73.28 10.96C73.28 12.70 75.04 13.44 76.55 13.44C79.11 13.44 80.14 12.03 80.14 10.22ZM78.19 6.79C78.19 8.22 77.62 8.82 76.72 8.82C75.82 8.82 75.24 8.22 75.24 6.79C75.24 5.36 75.88 4.76 76.71 4.76C77.53 4.76 78.19 5.36 78.19 6.79ZM85.83 9.74C85.86 9.98 85.95 10.32 86.16 10.50L88.27 10.50C88.02 10.23 87.85 9.76 87.85 9.02L87.85 6.10C87.85 3.85 86.56 3.01 84.70 3.01C83.34 3.01 81.91 3.53 81.55 5.21L83.33 5.80C83.47 5.26 83.79 4.72 84.60 4.72C85.48 4.72 85.75 5.31 85.75 5.78L85.75 5.95C85.39 6.12 84.94 6.20 84.18 6.29C82.42 6.50 81.33 7.08 81.33 8.65C81.33 10.00 82.43 10.71 83.75 10.71C84.62 10.71 85.23 10.47 85.83 9.74ZM85.75 8.19C85.51 8.68 84.90 9.14 84.24 9.14C83.64 9.14 83.44 8.83 83.43 8.51C83.40 7.94 83.82 7.70 84.46 7.57C85.16 7.43 85.50 7.31 85.75 7.21Z"></path></g><!----><!----></svg>